<?xml version="1.0" encoding="UTF-8"?><svg id="_레이어_2" xmlns="http://www.w3.org/2000/svg" viewBox="0 0 292.96 225.42"><defs><style>.cls-1{fill:#1e2b60;}.cls-2{fill:none;stroke:#1e2b60;stroke-miterlimit:10;stroke-width:2px;}.cls-3{fill:#ee7426;}</style></defs><g id="_레이어_1-2"><g id="_레이어_1-3"><polygon class="cls-3" points="174.39 184.64 89.07 220.89 89.64 131.38 174.2 97.42 174.39 184.64"/><path class="cls-1" d="M.08,97.42v88.76c0,6.43,10,6.45,10,0v-88.76c0-6.43-10-6.45-10,0H.08Z"/><path class="cls-1" d="M90.97,126.56c-24.62-9.89-49.23-19.77-73.85-29.66-3.57-1.43-7.14-2.87-10.71-4.3-5.97-2.4-8.57,7.27-2.66,9.64,24.62,9.89,49.23,19.77,73.85,29.66,3.57,1.43,7.14,2.87,10.71,4.3,5.97,2.4,8.57-7.27,2.66-9.64h0Z"/><path class="cls-1" d="M175.85,91.92c-10.84-4.36-21.69-8.71-32.53-13.07-5.97-2.4-8.57,7.27-2.66,9.64,10.84,4.36,21.69,8.71,32.53,13.07,5.97,2.4,8.57-7.27,2.66-9.64h0Z"/><path class="cls-1" d="M89.4,215.07c-24.17-9.82-48.35-19.64-72.52-29.46-3.49-1.42-6.98-2.84-10.47-4.25-5.96-2.42-8.55,7.25-2.66,9.64,24.17,9.82,48.35,19.64,72.52,29.46,3.49,1.42,6.98,2.84,10.47,4.25,5.96,2.42,8.55-7.25,2.66-9.64h0Z"/><path class="cls-1" d="M90.97,136.2c24.62-9.89,49.23-19.77,73.85-29.66,3.57-1.43,7.14-2.87,10.71-4.3,5.9-2.37,3.32-12.04-2.66-9.64-24.62,9.89-49.23,19.77-73.85,29.66-3.57,1.43-7.14,2.87-10.71,4.3-5.9,2.37-3.32,12.04,2.66,9.64h0Z"/><path class="cls-1" d="M6.11,101.97c14.28-4.79,28.56-9.54,42.83-14.36s28.36-12.32,40.64-21.99c10.61-8.35,18.62-18.17,21.38-31.59,2.05-9.95,1.32-21.6-7.06-28.55-10.76-8.93-25.11-5.9-35.52,1.72-13.43,9.83-20.44,23.82-17.83,40.58,2.27,14.56,9.77,26.86,24.2,31.83,34.54,11.89,64.11-16.77,83.69-41.25,3.98-4.98-3.05-12.1-7.07-7.07-14.48,18.11-32.31,38.5-57.04,40.66-13.18,1.15-27.02-3.54-31.68-16.87-4.87-13.95-3-27.32,8.38-37.27,7.13-6.24,19.45-12.29,27.46-3.76,5.46,5.82,3.66,15.71,1.43,22.51-3.95,12.07-14.12,20.1-24.32,26.99-9.46,6.39-19.69,11.18-30.49,14.81-13.88,4.67-27.77,9.31-41.66,13.97-6.07,2.04-3.47,11.7,2.66,9.64h0Z"/><path class="cls-1" d="M92.32,224.96c24.29-9.76,48.58-19.51,72.88-29.27,3.51-1.41,7.02-2.82,10.53-4.23,5.9-2.37,3.32-12.04-2.66-9.64-24.29,9.76-48.58,19.51-72.88,29.27-3.51,1.41-7.02,2.82-10.53,4.23-5.9,2.37-3.32,12.04,2.66,9.64h0Z"/><path class="cls-1" d="M84.64,131.38v88.76c0,6.43,10,6.45,10,0v-88.76c0-6.43-10-6.45-10,0h0Z"/><path class="cls-1" d="M169.2,97.42v88.76c0,6.43,10,6.45,10,0v-88.76c0-6.43-10-6.45-10,0h0Z"/><circle class="cls-3" cx="162.05" cy="23.06" r="14.13"/><circle class="cls-2" cx="89.64" cy="220.14" r="4.28"/><path class="cls-1" d="M219.23,125.74l13.9,6.49-2.69,5.76-10.93-5.1-.65,1.38,11.53,5.38-1.1,2.35-14.46-6.75,2.77-5.94,10.89,5.08.59-1.27-10.93-5.1,1.07-2.29ZM222.15,114.56l2.95,1.38-3,6.42c2.87,1.27,5.71,2.27,8.52,2.98l-.78,2.55c-1.75-.43-3.44-.94-5.08-1.55-1.64-.61-3.29-1.3-4.95-2.08l-1.79-.83,4.13-8.85ZM236.53,124.93l2.81,1.31-1.13,2.42-2.82-1.31-1.88,4.02-2.94-1.37,4.84-10.36,2.95,1.37-1.83,3.93Z"/><path class="cls-1" d="M255.56,143.81l-8.17-3.81-4.11,8.8-2.97-1.39,4.11-8.8-7.96-3.72,1.12-2.39,4.66,2.18c.86-1.03,1.58-2,2.16-2.92.58-.92,1.1-1.85,1.56-2.79l-4.03-1.88,1.1-2.36,6.94,3.24-.61,1.3c-.38.81-.73,1.52-1.06,2.13-.32.62-.74,1.33-1.26,2.14-.52.81-1.13,1.66-1.83,2.53l5.78,2.7c.79-1.04,1.46-2.02,2-2.95.54-.93,1.05-1.88,1.52-2.86l-4.21-1.96,1.1-2.36,7.12,3.32-.68,1.45c-.39.82-.74,1.54-1.05,2.15-.31.61-.71,1.32-1.18,2.11-.48.8-1.03,1.62-1.66,2.48l2.72,1.27-1.12,2.39Z"/><path class="cls-1" d="M188.79,156.76h3.12v6.81c3.02-.06,5.9-.35,8.63-.87l.35,2.54c-1.7.34-3.38.58-5.05.71s-3.39.2-5.16.2h-1.9v-9.39ZM190.79,167.69h14.74v6.11h-11.59v1.47h12.23v2.5h-15.35v-6.3h11.56v-1.35h-11.59v-2.43ZM205.53,159.94h2.99v2.56h-2.99v4.26h-3.12v-11h3.12v4.17Z"/><path class="cls-1" d="M218.32,165.34c.41,1.17,1.02,2.25,1.85,3.22.82.97,1.82,1.73,2.99,2.27l-1.74,2.44c-1.2-.55-2.25-1.36-3.13-2.41-.88-1.06-1.58-2.27-2.09-3.66-.52,1.52-1.23,2.87-2.15,4.02-.92,1.16-1.99,2.03-3.24,2.62l-1.81-2.46c1.19-.55,2.2-1.34,3.04-2.36.84-1.02,1.47-2.16,1.9-3.41.43-1.25.64-2.51.65-3.77v-1.36h-4.71v-2.55h12.31v2.55h-4.47v1.36c0,1.16.2,2.33.6,3.5ZM223.93,155.77h3.12v8.49h3.28v2.6h-3.28v11.14h-3.12v-22.24Z"/><path class="cls-1" d="M251.4,168.65h-8.67v9.34h-3.15v-9.34h-8.45v-2.54h4.95c.33-1.25.57-2.39.69-3.43.13-1.04.21-2.06.23-3.06h-4.27v-2.5h7.36v1.38c0,.86-.02,1.62-.05,2.29-.03.67-.1,1.46-.22,2.38-.12.92-.31,1.9-.56,2.95h6.13c.26-1.23.44-2.35.54-3.38.09-1.03.15-2.07.16-3.11h-4.46v-2.5h7.55v1.54c0,.88-.02,1.64-.04,2.3-.02.66-.08,1.43-.17,2.32-.09.89-.24,1.83-.44,2.84h2.88v2.54Z"/><path class="cls-1" d="M253.48,157.65h10.07v8.32h-6.91v4.34c1.7-.02,3.21-.07,4.53-.16,1.32-.09,2.64-.24,3.98-.47l.25,2.53c-1.55.26-3.1.44-4.66.53s-3.35.14-5.38.14h-1.83v-9.39h6.98v-3.33h-7.03v-2.51ZM271.47,178.06h-3.1v-11.72h-3.57v-2.55h3.57v-8.02h3.1v22.29Z"/><path class="cls-1" d="M286.2,172.71h-10.73v-14.91h10.73v14.91ZM283.18,170.24v-10.01h-4.61v10.01h4.61ZM289.81,155.77h3.15v22.29h-3.15v-22.29Z"/></g></g></svg>